<svg width="28" height="27" viewBox="0 0 28 27" fill="none" xmlns="http://www.w3.org/2000/svg">
<path d="M24.4738 9.52553L14.581 2.93034C14.4455 2.83995 14.2863 2.79172 14.1234 2.79172C13.9606 2.79172 13.8014 2.83995 13.6659 2.93034L3.77311 9.52553C3.66018 9.60088 3.5676 9.70295 3.5036 9.82267C3.4396 9.9424 3.40616 10.0761 3.40625 10.2118V20.929C3.40625 21.3663 3.57996 21.7857 3.88917 22.0949C4.19838 22.4041 4.61776 22.5778 5.05505 22.5778H23.1918C23.6291 22.5778 24.0485 22.4041 24.3577 22.0949C24.6669 21.7857 24.8406 21.3663 24.8406 20.929V10.2118C24.8407 10.0761 24.8073 9.9424 24.7433 9.82267C24.6793 9.70295 24.5867 9.60088 24.4738 9.52553ZM10.9 15.9826L5.05505 20.1046V11.8122L10.9 15.9826ZM12.587 16.807H15.6599L21.4956 20.929H6.75125L12.587 16.807ZM17.3468 15.9826L23.1918 11.8122V20.1046L17.3468 15.9826ZM14.1234 4.60696L22.5642 10.2345L15.6599 15.1582H12.589L5.68468 10.2345L14.1234 4.60696Z" fill="white"/>
</svg>
