<svg width="16" height="16" viewBox="0 0 16 16" fill="none" xmlns="http://www.w3.org/2000/svg">
<path d="M15.1936 1.49734V12.0641C15.1936 12.2796 15.108 12.4864 14.9555 12.6388C14.8031 12.7913 14.5963 12.8769 14.3808 12.8769C14.1652 12.8769 13.9584 12.7913 13.806 12.6388C13.6536 12.4864 13.5679 12.2796 13.5679 12.0641V3.45929L1.95062 15.0776C1.7981 15.2301 1.59124 15.3158 1.37555 15.3158C1.15985 15.3158 0.952994 15.2301 0.800475 15.0776C0.647955 14.9251 0.562271 14.7182 0.562271 14.5026C0.562271 14.2869 0.647955 14.08 0.800475 13.9275L12.4188 2.31016H3.81403C3.59845 2.31016 3.39171 2.22452 3.23927 2.07209C3.08684 1.91966 3.0012 1.71291 3.0012 1.49734C3.0012 1.28176 3.08684 1.07502 3.23927 0.922581C3.39171 0.770146 3.59845 0.684509 3.81403 0.684509H14.3808C14.5963 0.684509 14.8031 0.770146 14.9555 0.922581C15.108 1.07502 15.1936 1.28176 15.1936 1.49734Z" fill="#050505" fill-opacity="0.5"/>
</svg>
